# xmcd
#
# Track frame offsets: 
#        150
#        20475
#        37666
#        55276
#        73751
#        99235
#        125078
#        145299
#        163598
#        181313
#
# Disc length: 2723 seconds
#
# Revision: 0
# Processed by: cddbd v1.5.2PL0 Copyright (c) Steve Scherf et al.
# Submitted via: ExactAudioCopyFreeDBPlugin 1.0
#
DISCID=850aa10a
DTITLE=Rayland Baxter - Wide Awake
DYEAR=2018
DGENRE=Alternative
TTITLE0=Strange American Dream
TTITLE1=Casanova
TTITLE2=Angeline
TTITLE3=79 Shiny Revolvers
TTITLE4=Amelia Baker
TTITLE5=Without Me
TTITLE6=Hey Larocco
TTITLE7=Sandra Monica
TTITLE8=Everything To Me
TTITLE9=Let It All Go, Man
EXTD=
EXTT0=
EXTT1=
EXTT2=
EXTT3=
EXTT4=
EXTT5=
EXTT6=
EXTT7=
EXTT8=
EXTT9=
PLAYORDER=
